<?xml version="1.0" encoding="UTF-8" standalone="no"?>
<svg width="643px" height="108px" viewBox="0 0 643 108" version="1.1" xmlns="http://www.w3.org/2000/svg" xmlns:xlink="http://www.w3.org/1999/xlink">
    <!-- Generator: Sketch 42 (36781) - http://www.bohemiancoding.com/sketch -->
    <title>currying-0</title>
    <desc>Created with Sketch.</desc>
    <defs>
        <rect id="path-1" x="461" y="66" width="72" height="42" rx="8"></rect>
        <mask id="mask-2" maskContentUnits="userSpaceOnUse" maskUnits="objectBoundingBox" x="0" y="0" width="72" height="42" fill="white">
            <use xlink:href="#path-1"></use>
        </mask>
        <rect id="path-3" x="121" y="63" width="81" height="42" rx="8"></rect>
        <mask id="mask-4" maskContentUnits="userSpaceOnUse" maskUnits="objectBoundingBox" x="0" y="0" width="81" height="42" fill="white">
            <use xlink:href="#path-3"></use>
        </mask>
    </defs>
    <g id="Page-1" stroke="none" stroke-width="1" fill="none" fill-rule="evenodd">
        <use id="Rectangle" stroke="#979797" mask="url(#mask-2)" stroke-width="2" fill-opacity="0.453832654" fill="#4990E2" xlink:href="#path-1"></use>
        <text id="divide" font-family="Calibri" font-size="18" font-weight="normal" fill="#000000">
            <tspan x="477" y="89">divide</tspan>
        </text>
        <path d="M423.5,85.5 L458.5,85.5" id="Line" stroke="#979797" stroke-linecap="square" fill="#979797"></path>
        <path id="Line-decoration-1" d="M458.5,85.5 L447.7,82.5 L447.7,88.5 L458.5,85.5 Z" stroke="#979797" stroke-linecap="square" fill="#979797"></path>
        <path d="M81.5,82.5 L119.5,82.5" id="Line" stroke="#979797" stroke-linecap="square" fill="#979797"></path>
        <path id="Line-decoration-1" d="M119.5,82.5 L108.7,79.5 L108.7,85.5 L119.5,82.5 Z" stroke="#979797" stroke-linecap="square" fill="#979797"></path>
        <path d="M203.5,82.5 L241.5,82.5" id="Line" stroke="#979797" stroke-linecap="square" fill="#979797"></path>
        <path id="Line-decoration-1" d="M241.5,82.5 L230.7,79.5 L230.7,85.5 L241.5,82.5 Z" stroke="#979797" stroke-linecap="square" fill="#979797"></path>
        <path d="M418.5,36.5 L460.5,72.5" id="Line" stroke="#979797" stroke-linecap="square" fill="#3E3E3E" opacity="0.231634795"></path>
        <path id="Line-decoration-1" d="M460.5,72.5 L454.252403,63.1936834 L450.347655,67.749223 L460.5,72.5 Z" stroke="#979797" stroke-linecap="square" fill="#3E3E3E" opacity="0.231634795"></path>
        <path d="M534.5,85.5 L561.5,85.5" id="Line" stroke="#979797" stroke-linecap="square" fill="#979797"></path>
        <path id="Line-decoration-1" d="M561.5,85.5 L550.7,82.5 L550.7,88.5 L561.5,85.5 Z" stroke="#979797" stroke-linecap="square" fill="#979797"></path>
        <ellipse id="Oval" stroke="#979797" fill-opacity="0.45" fill="#F5A623" cx="382.5" cy="84" rx="40.5" ry="21"></ellipse>
        <ellipse id="Oval" stroke="#979797" fill-opacity="0.45" fill="#F5A623" opacity="0.304221082" cx="382.5" cy="27" rx="40.5" ry="21"></ellipse>
        <text id="Float" opacity="0.231634795" font-family="Calibri" font-size="18" font-weight="normal" fill="#000000">
            <tspan x="364.311035" y="31">Float</tspan>
        </text>
        <ellipse id="Oval" stroke="#979797" fill-opacity="0.45" fill="#F5A623" cx="602.5" cy="87" rx="40.5" ry="21"></ellipse>
        <text id="Float" font-family="Calibri" font-size="18" font-weight="normal" fill="#000000">
            <tspan x="584.311035" y="91">Float</tspan>
        </text>
        <text id="Float" font-family="Calibri" font-size="18" font-weight="normal" fill="#000000">
            <tspan x="364.311035" y="91">Float</tspan>
        </text>
        <use id="Rectangle" stroke="#979797" mask="url(#mask-4)" stroke-width="2" fill-opacity="0.453832654" fill="#4990E2" xlink:href="#path-3"></use>
        <text id="calculate" font-family="Calibri" font-size="18" font-weight="normal" fill="#000000">
            <tspan x="129" y="90">calculate</tspan>
        </text>
        <ellipse id="Oval" stroke="#979797" fill-opacity="0.45" fill="#F5A623" cx="40.5" cy="84" rx="40.5" ry="21"></ellipse>
        <ellipse id="Oval" stroke="#979797" fill-opacity="0.45" fill="#F5A623" cx="282.5" cy="84" rx="40.5" ry="21"></ellipse>
        <text id="Float" font-family="Calibri" font-size="18" font-weight="normal" fill="#000000">
            <tspan x="264.311035" y="88">Float</tspan>
        </text>
        <text id="Float" font-family="Calibri" font-size="18" font-weight="normal" fill="#000000">
            <tspan x="22.3110352" y="88">Float</tspan>
        </text>
        <path d="M418.5,36.5 L460.5,72.5" id="Line" stroke-opacity="0.23" stroke="#979797" stroke-linecap="square" fill-opacity="0.23" fill="#979797" opacity="0.653798974"></path>
        <path id="Line-decoration-1" d="M460.5,72.5 L454.252403,63.1936834 L450.347655,67.749223 L460.5,72.5 Z" stroke-opacity="0.23" stroke="#979797" stroke-linecap="square" fill-opacity="0.23" fill="#979797" opacity="0.653798974"></path>
    </g>
</svg>