<?xml version="1.0" encoding="UTF-8" standalone="no"?>
<svg width="387px" height="174px" viewBox="0 0 387 174" version="1.1" xmlns="http://www.w3.org/2000/svg" xmlns:xlink="http://www.w3.org/1999/xlink">
    <!-- Generator: Sketch 42 (36781) - http://www.bohemiancoding.com/sketch -->
    <title>currying-2</title>
    <desc>Created with Sketch.</desc>
    <defs>
        <rect id="path-1" x="137" y="8" width="72" height="42" rx="8"></rect>
        <mask id="mask-2" maskContentUnits="userSpaceOnUse" maskUnits="objectBoundingBox" x="0" y="0" width="72" height="42" fill="white">
            <use xlink:href="#path-1"></use>
        </mask>
        <rect id="path-3" x="137" y="123" width="72" height="42" rx="8"></rect>
        <mask id="mask-4" maskContentUnits="userSpaceOnUse" maskUnits="objectBoundingBox" x="0" y="0" width="72" height="42" fill="white">
            <use xlink:href="#path-3"></use>
        </mask>
    </defs>
    <g id="Page-1" stroke="none" stroke-width="1" fill="none" fill-rule="evenodd">
        <use id="Rectangle" stroke="#979797" mask="url(#mask-2)" stroke-width="2" fill-opacity="0.453832654" fill="#4990E2" xlink:href="#path-1"></use>
        <text id="divide" font-family="Calibri" font-size="18" font-weight="normal" fill="#000000">
            <tspan x="151" y="31">divide</tspan>
        </text>
        <path d="M97.5,27.5 L136.5,27.5" id="Line" stroke="#979797" stroke-linecap="square" fill="#3E3E3E"></path>
        <path id="Line-decoration-1" d="M136.5,27.5 L125.7,24.5 L125.7,30.5 L136.5,27.5 Z" stroke="#979797" stroke-linecap="square" fill="#3E3E3E"></path>
        <path d="M209.5,27.5 L235.5,27.5" id="Line" stroke="#979797" stroke-linecap="square" fill="#3E3E3E"></path>
        <path id="Line-decoration-1" d="M235.5,27.5 L224.7,24.5 L224.7,30.5 L235.5,27.5 Z" stroke="#979797" stroke-linecap="square" fill="#3E3E3E"></path>
        <ellipse id="Oval" stroke="#979797" fill-opacity="0.45" fill="#F5A623" cx="56.5" cy="26" rx="40.5" ry="21"></ellipse>
        <text id="Float" font-family="Calibri" font-size="18" font-weight="normal" fill="#000000">
            <tspan x="38.3110352" y="30">Float</tspan>
        </text>
        <ellipse id="Oval" stroke="#979797" fill-opacity="0.45" fill="#F5A623" cx="305.5" cy="29" rx="69.5" ry="21"></ellipse>
        <text id="Float--&gt;-Float" font-family="Calibri" font-size="18" font-weight="normal" fill="#000000">
            <tspan x="260.314941" y="34">Float -&gt; Float</tspan>
        </text>
        <path d="M97.5,27.5 L136.5,27.5" id="Line" stroke="#979797" stroke-linecap="square" fill="#979797"></path>
        <path id="Line-decoration-1" d="M136.5,27.5 L125.7,24.5 L125.7,30.5 L136.5,27.5 Z" stroke="#979797" stroke-linecap="square" fill="#979797"></path>
        <path d="M209.5,27.5 L235.5,27.5" id="Line" stroke="#979797" stroke-linecap="square" fill="#979797"></path>
        <path id="Line-decoration-1" d="M235.5,27.5 L224.7,24.5 L224.7,30.5 L235.5,27.5 Z" stroke="#979797" stroke-linecap="square" fill="#979797"></path>
        <use id="Rectangle" stroke="#979797" mask="url(#mask-4)" stroke-width="2" fill-opacity="0.453832654" fill="#4990E2" xlink:href="#path-3"></use>
        <text id="divideN" font-family="Calibri" font-size="18" font-weight="normal" fill="#000000">
            <tspan x="147" y="148">divideN</tspan>
        </text>
        <path d="M97.5,142.5 L136.5,142.5" id="Line" stroke="#979797" stroke-linecap="square" fill="#3E3E3E"></path>
        <path id="Line-decoration-1" d="M136.5,142.5 L125.7,139.5 L125.7,145.5 L136.5,142.5 Z" stroke="#979797" stroke-linecap="square" fill="#3E3E3E"></path>
        <path d="M209.5,142.5 L235.5,142.5" id="Line" stroke="#979797" stroke-linecap="square" fill="#3E3E3E"></path>
        <path id="Line-decoration-1" d="M235.5,142.5 L224.7,139.5 L224.7,145.5 L235.5,142.5 Z" stroke="#979797" stroke-linecap="square" fill="#3E3E3E"></path>
        <ellipse id="Oval" stroke="#979797" fill-opacity="0.45" fill="#F5A623" cx="56.5" cy="141" rx="40.5" ry="21"></ellipse>
        <text id="Float" font-family="Calibri" font-size="18" font-weight="normal" fill="#000000">
            <tspan x="38.3110352" y="145">Float</tspan>
        </text>
        <ellipse id="Oval" stroke="#979797" fill-opacity="0.45" fill="#F5A623" cx="282" cy="144" rx="46" ry="21"></ellipse>
        <text id="Float" font-family="Calibri" font-size="18" font-weight="normal" fill="#000000">
            <tspan x="263.811035" y="149">Float</tspan>
        </text>
        <path d="M97.5,142.5 L136.5,142.5" id="Line" stroke="#979797" stroke-linecap="square" fill="#979797"></path>
        <path id="Line-decoration-1" d="M136.5,142.5 L125.7,139.5 L125.7,145.5 L136.5,142.5 Z" stroke="#979797" stroke-linecap="square" fill="#979797"></path>
        <path d="M209.5,142.5 L235.5,142.5" id="Line" stroke="#979797" stroke-linecap="square" fill="#979797"></path>
        <path id="Line-decoration-1" d="M235.5,142.5 L224.7,139.5 L224.7,145.5 L235.5,142.5 Z" stroke="#979797" stroke-linecap="square" fill="#979797"></path>
        <path d="M231.5,42.5 L140.5,120.5" id="Line" stroke="#979797" stroke-linecap="square" opacity="0.3"></path>
        <path d="M368.5,43.5 L208.5,122.5" id="Line" stroke="#979797" stroke-linecap="square" opacity="0.3"></path>
    </g>
</svg>