<?xml version="1.0" encoding="UTF-8" standalone="no"?>
<svg width="709px" height="165px" viewBox="0 0 709 165" version="1.1" xmlns="http://www.w3.org/2000/svg" xmlns:xlink="http://www.w3.org/1999/xlink">
    <!-- Generator: Sketch 42 (36781) - http://www.bohemiancoding.com/sketch -->
    <title>Slice</title>
    <desc>Created with Sketch.</desc>
    <defs>
        <rect id="path-1" x="143" y="6" width="67" height="62" rx="8"></rect>
        <mask id="mask-2" maskContentUnits="userSpaceOnUse" maskUnits="objectBoundingBox" x="0" y="0" width="67" height="62" fill="white">
            <use xlink:href="#path-1"></use>
        </mask>
        <rect id="path-3" x="1.13686838e-13" y="92" width="698" height="62" rx="8"></rect>
        <mask id="mask-4" maskContentUnits="userSpaceOnUse" maskUnits="objectBoundingBox" x="0" y="0" width="698" height="62" fill="white">
            <use xlink:href="#path-3"></use>
        </mask>
        <rect id="path-5" x="489" y="6" width="67" height="62" rx="8"></rect>
        <mask id="mask-6" maskContentUnits="userSpaceOnUse" maskUnits="objectBoundingBox" x="0" y="0" width="67" height="62" fill="white">
            <use xlink:href="#path-5"></use>
        </mask>
    </defs>
    <g id="Page-1" stroke="none" stroke-width="1" fill="none" fill-rule="evenodd">
        <path d="M112.5,36.5 L142.5,36.5" id="Line" stroke="#979797" stroke-linecap="square" fill="#979797"></path>
        <path id="Line-decoration-1" d="M142.5,36.5 L131.7,33.5 L131.7,39.5 L142.5,36.5 Z" stroke="#979797" stroke-linecap="square" fill="#979797"></path>
        <path d="M53.5,91.5 L53.5,60.5" id="Line" stroke="#979797" stroke-linecap="square" fill="#979797"></path>
        <path id="Line-decoration-1" d="M53.5,60.5 L50.5,71.3 L56.5,71.3 L53.5,60.5 Z" stroke="#979797" stroke-linecap="square" fill="#979797"></path>
        <path d="M53.5,91.5 L53.5,60.5" id="Line" stroke="#979797" stroke-linecap="square" fill="#979797"></path>
        <path id="Line-decoration-1" d="M53.5,60.5 L50.5,71.3 L56.5,71.3 L53.5,60.5 Z" stroke="#979797" stroke-linecap="square" fill="#979797"></path>
        <path d="M641.5,53.5 L641.5,91.5" id="Line" stroke="#979797" stroke-linecap="square" fill="#979797"></path>
        <path id="Line-decoration-1" d="M641.5,91.5 L644.5,80.7 L638.5,80.7 L641.5,91.5 Z" stroke="#979797" stroke-linecap="square" fill="#979797"></path>
        <path d="M210.5,36.5 L240.5,36.5" id="Line" stroke="#979797" stroke-linecap="square" fill="#979797"></path>
        <path id="Line-decoration-1" d="M240.5,36.5 L229.7,33.5 L229.7,39.5 L240.5,36.5 Z" stroke="#979797" stroke-linecap="square" fill="#979797"></path>
        <path d="M282.5,55.5 L282.5,91.5" id="Line" stroke="#979797" stroke-linecap="square" fill="#979797"></path>
        <path id="Line-decoration-1" d="M282.5,91.5 L285.5,80.7 L279.5,80.7 L282.5,91.5 Z" stroke="#979797" stroke-linecap="square" fill="#979797"></path>
        <ellipse id="Oval" stroke="#979797" fill-opacity="0.45" fill="#F5A623" cx="56" cy="35.4104004" rx="56" ry="24.4104004"></ellipse>
        <text id="Msg,-Model" font-family="Calibri" font-size="18" font-weight="normal" fill="#000000">
            <tspan x="13" y="40">Msg, Model</tspan>
        </text>
        <ellipse id="Oval" stroke="#979797" fill-opacity="0.45" fill="#F5A623" cx="283.5" cy="35.4104004" rx="42.5" ry="18.4104004"></ellipse>
        <ellipse id="Oval" stroke="#979797" fill-opacity="0.45" fill="#F5A623" cx="642" cy="34.4104004" rx="56" ry="18.4104004"></ellipse>
        <text id="Model" font-family="Calibri" font-size="18" font-weight="normal" fill="#000000">
            <tspan x="258" y="40">Model</tspan>
        </text>
        <path d="M412.5,55.5 L412.5,91.5" id="Line" stroke="#979797" stroke-linecap="square" fill="#979797" transform="translate(412.500000, 73.500000) scale(1, -1) translate(-412.500000, -73.500000) "></path>
        <path id="Line-decoration-1" d="M412.5,91.5 L415.5,80.7 L409.5,80.7 L412.5,91.5 Z" stroke="#979797" stroke-linecap="square" fill="#979797"></path>
        <ellipse id="Oval" stroke="#979797" fill-opacity="0.45" fill="#F5A623" cx="413.5" cy="35.4104004" rx="42.5" ry="18.4104004"></ellipse>
        <text id="Model" font-family="Calibri" font-size="18" font-weight="normal" fill="#000000">
            <tspan x="388" y="40">Model</tspan>
        </text>
        <text id="Html,-Cmd" font-family="Calibri" font-size="18" font-weight="normal" fill="#000000">
            <tspan x="602" y="40">Html, Cmd</tspan>
        </text>
        <use id="Rectangle" stroke="#979797" mask="url(#mask-2)" stroke-width="2" fill-opacity="0.453832654" fill="#4990E2" xlink:href="#path-1"></use>
        <use id="Rectangle" stroke="#979797" mask="url(#mask-4)" stroke-width="2" fill-opacity="0.45" fill="#B3C1D2" xlink:href="#path-3"></use>
        <text id="update" font-family="Calibri" font-size="18" font-weight="normal" fill="#000000">
            <tspan x="153" y="41">update</tspan>
        </text>
        <use id="Rectangle" stroke="#979797" mask="url(#mask-6)" stroke-width="2" fill-opacity="0.453832654" fill="#4990E2" xlink:href="#path-5"></use>
        <text id="view" font-family="Calibri" font-size="18" font-weight="normal" fill="#000000">
            <tspan x="500" y="41">view</tspan>
        </text>
        <text id="Elm-Runtime" font-family="Calibri" font-size="18" font-weight="normal" fill="#000000">
            <tspan x="311" y="127">Elm Runtime</tspan>
        </text>
        <path d="M457.5,35.5 L487.5,35.5" id="Line" stroke="#979797" stroke-linecap="square" fill="#979797"></path>
        <path id="Line-decoration-1" d="M487.5,35.5 L476.7,32.5 L476.7,38.5 L487.5,35.5 Z" stroke="#979797" stroke-linecap="square" fill="#979797"></path>
        <path d="M555.5,35.5 L585.5,35.5" id="Line" stroke="#979797" stroke-linecap="square" fill="#979797"></path>
        <path id="Line-decoration-1" d="M585.5,35.5 L574.7,32.5 L574.7,38.5 L585.5,35.5 Z" stroke="#979797" stroke-linecap="square" fill="#979797"></path>
    </g>
</svg>