<?xml version="1.0" encoding="UTF-8" standalone="no"?>
<svg width="597px" height="148px" viewBox="0 0 597 148" version="1.1" xmlns="http://www.w3.org/2000/svg" xmlns:xlink="http://www.w3.org/1999/xlink">
    <!-- Generator: Sketch 42 (36781) - http://www.bohemiancoding.com/sketch -->
    <title>elm-runtime</title>
    <desc>Created with Sketch.</desc>
    <defs>
        <rect id="path-1" x="161" y="0" width="67" height="62" rx="8"></rect>
        <mask id="mask-2" maskContentUnits="userSpaceOnUse" maskUnits="objectBoundingBox" x="0" y="0" width="67" height="62" fill="white">
            <use xlink:href="#path-1"></use>
        </mask>
        <rect id="path-3" x="0" y="86" width="597" height="62" rx="8"></rect>
        <mask id="mask-4" maskContentUnits="userSpaceOnUse" maskUnits="objectBoundingBox" x="0" y="0" width="597" height="62" fill="white">
            <use xlink:href="#path-3"></use>
        </mask>
        <rect id="path-5" x="377" y="0" width="67" height="62" rx="8"></rect>
        <mask id="mask-6" maskContentUnits="userSpaceOnUse" maskUnits="objectBoundingBox" x="0" y="0" width="67" height="62" fill="white">
            <use xlink:href="#path-5"></use>
        </mask>
    </defs>
    <g id="Page-1" stroke="none" stroke-width="1" fill="none" fill-rule="evenodd">
        <path d="M130.5,30.5 L160.5,30.5" id="Line" stroke="#979797" stroke-linecap="square" fill="#979797"></path>
        <path id="Line-decoration-1" d="M160.5,30.5 L149.7,27.5 L149.7,33.5 L160.5,30.5 Z" stroke="#979797" stroke-linecap="square" fill="#979797"></path>
        <path d="M71.5,85.5 L71.5,54.5" id="Line" stroke="#979797" stroke-linecap="square" fill="#979797"></path>
        <path id="Line-decoration-1" d="M71.5,54.5 L68.5,65.3 L74.5,65.3 L71.5,54.5 Z" stroke="#979797" stroke-linecap="square" fill="#979797"></path>
        <path d="M529.5,47.5 L529.5,85.5" id="Line" stroke="#979797" stroke-linecap="square" fill="#979797"></path>
        <path id="Line-decoration-1" d="M529.5,85.5 L532.5,74.7 L526.5,74.7 L529.5,85.5 Z" stroke="#979797" stroke-linecap="square" fill="#979797"></path>
        <path d="M228.5,30.5 L258.5,30.5" id="Line" stroke="#979797" stroke-linecap="square" fill="#979797"></path>
        <path id="Line-decoration-1" d="M258.5,30.5 L247.7,27.5 L247.7,33.5 L258.5,30.5 Z" stroke="#979797" stroke-linecap="square" fill="#979797"></path>
        <ellipse id="Oval" stroke="#979797" fill-opacity="0.45" fill="#F5A623" cx="74" cy="29.4104004" rx="56" ry="24.4104004"></ellipse>
        <text id="Msg,-Model" font-family="Calibri" font-size="18" font-weight="normal" fill="#000000">
            <tspan x="31" y="34">Msg, Model</tspan>
        </text>
        <ellipse id="Oval" stroke="#979797" fill-opacity="0.45" fill="#F5A623" cx="301.5" cy="29.4104004" rx="42.5" ry="18.4104004"></ellipse>
        <ellipse id="Oval" stroke="#979797" fill-opacity="0.45" fill="#F5A623" cx="530" cy="28.4104004" rx="56" ry="18.4104004"></ellipse>
        <text id="Model" font-family="Calibri" font-size="18" font-weight="normal" fill="#000000">
            <tspan x="276" y="34">Model</tspan>
        </text>
        <text id="Html,-Cmd" font-family="Calibri" font-size="18" font-weight="normal" fill="#000000">
            <tspan x="490" y="34">Html, Cmd</tspan>
        </text>
        <use id="Rectangle" stroke="#979797" mask="url(#mask-2)" stroke-width="2" fill-opacity="0.453832654" fill="#4990E2" xlink:href="#path-1"></use>
        <use id="Rectangle" stroke="#979797" mask="url(#mask-4)" stroke-width="2" fill-opacity="0.453832654" fill="#4990E2" xlink:href="#path-3"></use>
        <text id="update" font-family="Calibri" font-size="18" font-weight="normal" fill="#000000">
            <tspan x="171" y="35">update</tspan>
        </text>
        <use id="Rectangle" stroke="#979797" mask="url(#mask-6)" stroke-width="2" fill-opacity="0.453832654" fill="#4990E2" xlink:href="#path-5"></use>
        <text id="view" font-family="Calibri" font-size="18" font-weight="normal" fill="#000000">
            <tspan x="388" y="35">view</tspan>
        </text>
        <text id="elmRuntime" font-family="Calibri" font-size="18" font-weight="normal" fill="#000000">
            <tspan x="245" y="123">elmRuntime</tspan>
        </text>
        <path d="M345.5,29.5 L375.5,29.5" id="Line" stroke="#979797" stroke-linecap="square" fill="#979797"></path>
        <path id="Line-decoration-1" d="M375.5,29.5 L364.7,26.5 L364.7,32.5 L375.5,29.5 Z" stroke="#979797" stroke-linecap="square" fill="#979797"></path>
        <path d="M443.5,29.5 L473.5,29.5" id="Line" stroke="#979797" stroke-linecap="square" fill="#979797"></path>
        <path id="Line-decoration-1" d="M473.5,29.5 L462.7,26.5 L462.7,32.5 L473.5,29.5 Z" stroke="#979797" stroke-linecap="square" fill="#979797"></path>
    </g>
</svg>