<?xml version="1.0" encoding="UTF-8" standalone="no"?>
<svg width="949px" height="332px" viewBox="0 0 949 332" version="1.1" xmlns="http://www.w3.org/2000/svg" xmlns:xlink="http://www.w3.org/1999/xlink">
    <!-- Generator: Sketch 42 (36781) - http://www.bohemiancoding.com/sketch -->
    <title>Slice</title>
    <desc>Created with Sketch.</desc>
    <defs>
        <rect id="path-1" x="167" y="217" width="72" height="62" rx="8"></rect>
        <mask id="mask-2" maskContentUnits="userSpaceOnUse" maskUnits="objectBoundingBox" x="0" y="0" width="72" height="62" fill="white">
            <use xlink:href="#path-1"></use>
        </mask>
        <rect id="path-3" x="428" y="161" width="99" height="152" rx="8"></rect>
        <mask id="mask-4" maskContentUnits="userSpaceOnUse" maskUnits="objectBoundingBox" x="0" y="0" width="99" height="152" fill="white">
            <use xlink:href="#path-3"></use>
        </mask>
        <rect id="path-5" x="440" y="15" width="72" height="62" rx="8"></rect>
        <mask id="mask-6" maskContentUnits="userSpaceOnUse" maskUnits="objectBoundingBox" x="0" y="0" width="72" height="62" fill="white">
            <use xlink:href="#path-5"></use>
        </mask>
        <rect id="path-7" x="711" y="217" width="72" height="62" rx="8"></rect>
        <mask id="mask-8" maskContentUnits="userSpaceOnUse" maskUnits="objectBoundingBox" x="0" y="0" width="72" height="62" fill="white">
            <use xlink:href="#path-7"></use>
        </mask>
    </defs>
    <g id="Page-1" stroke="none" stroke-width="1" fill="none" fill-rule="evenodd">
        <ellipse id="Oval" stroke="#979797" fill-opacity="0.45" fill="#F5A623" cx="204.5" cy="236.5" rx="193.5" ry="63.5"></ellipse>
        <use id="Rectangle" stroke="#979797" mask="url(#mask-2)" stroke-width="2" fill-opacity="0.453832654" fill="#4990E2" xlink:href="#path-1"></use>
        <use id="Rectangle" stroke="#979797" mask="url(#mask-4)" stroke-width="2" fill-opacity="0.453832654" fill="#4990E2" xlink:href="#path-3"></use>
        <text id="ParserFn" font-family="Calibri" font-size="18" font-weight="normal" fill="#000000">
            <tspan x="171" y="251">ParserFn</tspan>
        </text>
        <ellipse id="Oval" stroke="#979797" fill-opacity="0.45" fill="#F5A623" cx="327" cy="243.5" rx="61" ry="23.5"></ellipse>
        <path d="M127.5,244.5 L166.5,244.5" id="Line" stroke="#979797" stroke-linecap="square" fill="#979797"></path>
        <path id="Line-decoration-1" d="M166.5,244.5 L155.7,241.5 L155.7,247.5 L166.5,244.5 Z" stroke="#979797" stroke-linecap="square" fill="#979797"></path>
        <path d="M239.5,243.5 L265.5,243.5" id="Line" stroke="#979797" stroke-linecap="square" fill="#979797"></path>
        <path id="Line-decoration-1" d="M265.5,243.5 L254.7,240.5 L254.7,246.5 L265.5,243.5 Z" stroke="#979797" stroke-linecap="square" fill="#979797"></path>
        <path d="M400.5,235.5 L426.5,235.5" id="Line" stroke="#979797" stroke-linecap="square" fill="#979797"></path>
        <path id="Line-decoration-1" d="M426.5,235.5 L415.7,232.5 L415.7,238.5 L426.5,235.5 Z" stroke="#979797" stroke-linecap="square" fill="#979797"></path>
        <path d="M527.5,234.5 L553.5,234.5" id="Line" stroke="#979797" stroke-linecap="square" fill="#979797"></path>
        <path id="Line-decoration-1" d="M553.5,234.5 L542.7,231.5 L542.7,237.5 L553.5,234.5 Z" stroke="#979797" stroke-linecap="square" fill="#979797"></path>
        <ellipse id="Oval" stroke="#979797" fill-opacity="0.45" fill="#F5A623" cx="77.5" cy="245" rx="49.5" ry="31"></ellipse>
        <text id="ParserResult-a" font-family="Calibri" font-size="18" font-weight="normal" fill="#000000">
            <tspan x="275" y="249">ParserResult a</tspan>
        </text>
        <text id="List-Token" font-family="Calibri" font-size="18" font-weight="normal" fill="#000000">
            <tspan x="42.8427734" y="251">List Token</tspan>
        </text>
        <use id="Rectangle" stroke="#979797" mask="url(#mask-6)" stroke-width="2" fill-opacity="0.453832654" fill="#4990E2" xlink:href="#path-5"></use>
        <text id="EAdd" font-family="Calibri" font-size="18" font-weight="normal" fill="#000000">
            <tspan x="444" y="49">EAdd</tspan>
        </text>
        <ellipse id="Oval" stroke="#979797" fill-opacity="0.45" fill="#F5A623" cx="575" cy="41.5" rx="36" ry="23.5"></ellipse>
        <path d="M512.5,41.5 L538.5,41.5" id="Line" stroke="#979797" stroke-linecap="square" fill="#979797"></path>
        <path id="Line-decoration-1" d="M538.5,41.5 L527.7,38.5 L527.7,44.5 L538.5,41.5 Z" stroke="#979797" stroke-linecap="square" fill="#979797"></path>
        <path d="M407.594488,41.5 L438.507874,41.5" id="Line" stroke="#979797" stroke-linecap="square" fill="#979797"></path>
        <path id="Line-decoration-1" d="M438.507874,41.5 L427.707874,38.5 L427.707874,44.5 L438.507874,41.5 Z" stroke="#979797" stroke-linecap="square" fill="#979797"></path>
        <ellipse id="Oval" stroke="#979797" fill-opacity="0.45" fill="#F5A623" cx="346.854331" cy="45" rx="58.8543307" ry="31"></ellipse>
        <text id="Exp" font-family="Calibri" font-size="18" font-weight="normal" fill="#000000">
            <tspan x="548" y="47">Exp</tspan>
        </text>
        <text id="(Float,-Float)" font-family="Calibri" font-size="18" font-weight="normal" fill="#000000">
            <tspan x="302.037332" y="51">(Float, Float)</tspan>
        </text>
        <text id="Parser-(Float,-Float" font-family="Helvetica" font-size="18" font-weight="normal" fill="#000000">
            <tspan x="138" y="195">Parser (Float, Float)</tspan>
        </text>
        <ellipse id="Oval" stroke="#979797" fill-opacity="0.45" fill="#F5A623" cx="748.5" cy="236.5" rx="193.5" ry="63.5"></ellipse>
        <use id="Rectangle" stroke="#979797" mask="url(#mask-8)" stroke-width="2" fill-opacity="0.453832654" fill="#4990E2" xlink:href="#path-7"></use>
        <text id="ParserFn" font-family="Calibri" font-size="18" font-weight="normal" fill="#000000">
            <tspan x="715" y="251">ParserFn</tspan>
        </text>
        <ellipse id="Oval" stroke="#979797" fill-opacity="0.45" fill="#F5A623" cx="876" cy="243.5" rx="66" ry="23.5"></ellipse>
        <path d="M671.5,244.5 L710.5,244.5" id="Line" stroke="#979797" stroke-linecap="square" fill="#979797"></path>
        <path id="Line-decoration-1" d="M710.5,244.5 L699.7,241.5 L699.7,247.5 L710.5,244.5 Z" stroke="#979797" stroke-linecap="square" fill="#979797"></path>
        <path d="M783.5,243.5 L809.5,243.5" id="Line" stroke="#979797" stroke-linecap="square" fill="#979797"></path>
        <path id="Line-decoration-1" d="M809.5,243.5 L798.7,240.5 L798.7,246.5 L809.5,243.5 Z" stroke="#979797" stroke-linecap="square" fill="#979797"></path>
        <ellipse id="Oval" stroke="#979797" fill-opacity="0.45" fill="#F5A623" cx="621.5" cy="245" rx="49.5" ry="31"></ellipse>
        <text id="ParserResult-Exp" font-family="Calibri" font-size="18" font-weight="normal" fill="#000000">
            <tspan x="819" y="249">ParserResult Exp</tspan>
        </text>
        <text id="List-Token" font-family="Calibri" font-size="18" font-weight="normal" fill="#000000">
            <tspan x="586.842773" y="251">List Token</tspan>
        </text>
        <text id="Parser-Exp" font-family="Helvetica" font-size="18" font-weight="normal" fill="#000000">
            <tspan x="700" y="195">Parser Exp</tspan>
        </text>
        <text id="map-EAdd" font-family="Helvetica" font-size="18" font-weight="normal" fill="#000000">
            <tspan x="434" y="239">map EAdd</tspan>
        </text>
        <path d="M476.444444,88 L476.444444,144.5" id="Line" stroke="#CF4848" stroke-width="3" stroke-linecap="square" fill="#CF4848"></path>
        <path id="Line-decoration-1" d="M476.444444,144.5 L479.444444,133.7 L473.444444,133.7 L476.444444,144.5 Z" stroke="#CF4848" stroke-width="3" stroke-linecap="square" fill="#CF4848"></path>
    </g>
</svg>