<?xml version="1.0" encoding="UTF-8" standalone="no"?>
<svg width="931px" height="69px" viewBox="0 0 931 69" version="1.1" xmlns="http://www.w3.org/2000/svg" xmlns:xlink="http://www.w3.org/1999/xlink">
    <!-- Generator: Sketch 42 (36781) - http://www.bohemiancoding.com/sketch -->
    <title>simple-compiler-architecture</title>
    <desc>Created with Sketch.</desc>
    <defs>
        <rect id="path-1" x="155" y="6" width="89" height="62" rx="8"></rect>
        <mask id="mask-2" maskContentUnits="userSpaceOnUse" maskUnits="objectBoundingBox" x="0" y="0" width="89" height="62" fill="white">
            <use xlink:href="#path-1"></use>
        </mask>
        <rect id="path-3" x="442" y="6" width="69" height="62" rx="8"></rect>
        <mask id="mask-4" maskContentUnits="userSpaceOnUse" maskUnits="objectBoundingBox" x="0" y="0" width="69" height="62" fill="white">
            <use xlink:href="#path-3"></use>
        </mask>
        <rect id="path-5" x="704" y="7" width="69" height="58" rx="8"></rect>
        <mask id="mask-6" maskContentUnits="userSpaceOnUse" maskUnits="objectBoundingBox" x="0" y="0" width="69" height="58" fill="white">
            <use xlink:href="#path-5"></use>
        </mask>
    </defs>
    <g id="Page-1" stroke="none" stroke-width="1" fill="none" fill-rule="evenodd">
        <use id="Rectangle" stroke="#979797" mask="url(#mask-2)" stroke-width="2" fill-opacity="0.453832654" fill="#4990E2" xlink:href="#path-1"></use>
        <use id="Rectangle" stroke="#979797" mask="url(#mask-4)" stroke-width="2" fill-opacity="0.453832654" fill="#4990E2" xlink:href="#path-3"></use>
        <text id="Tokenizer" font-family="Calibri" font-size="18" font-weight="normal" fill="#000000">
            <tspan x="165" y="42">Tokenizer</tspan>
        </text>
        <use id="Rectangle" stroke="#979797" mask="url(#mask-6)" stroke-width="2" fill-opacity="0.453832654" fill="#4990E2" xlink:href="#path-5"></use>
        <path d="M119.5,36.5 L154.5,36.5" id="Line" stroke="#979797" stroke-linecap="square" fill="#3E3E3E"></path>
        <path id="Line-decoration-1" d="M154.5,36.5 L143.7,33.5 L143.7,39.5 L154.5,36.5 Z" stroke="#979797" stroke-linecap="square" fill="#3E3E3E"></path>
        <text id="Parser" font-family="Calibri" font-size="18" font-weight="normal" fill="#000000">
            <tspan x="450" y="40">Parser</tspan>
        </text>
        <text id="Backend" font-family="Calibri" font-size="18" font-weight="normal" fill="#000000">
            <tspan x="709" y="40">Backend</tspan>
        </text>
        <ellipse id="Oval" stroke="#979797" fill-opacity="0.45" fill="#F5A623" cx="59.5" cy="37" rx="58.5" ry="31"></ellipse>
        <ellipse id="Oval" stroke="#979797" fill-opacity="0.45" fill="#F5A623" cx="606.5" cy="35" rx="58.5" ry="31"></ellipse>
        <text id="Structure-(AST)" font-family="Calibri" font-size="18" font-weight="normal" fill="#000000">
            <tspan x="572.937988" y="29">Structure</tspan>
            <tspan x="587.875" y="51">(AST)</tspan>
        </text>
        <text id="String" font-family="Calibri" font-size="18" font-weight="normal" fill="#000000">
            <tspan x="38.1821289" y="42">String</tspan>
        </text>
        <path d="M402.5,33.5 L441.5,33.5" id="Line" stroke="#979797" stroke-linecap="square" fill="#3E3E3E"></path>
        <path id="Line-decoration-1" d="M441.5,33.5 L430.7,30.5 L430.7,36.5 L441.5,33.5 Z" stroke="#979797" stroke-linecap="square" fill="#3E3E3E"></path>
        <path d="M510.5,32.5 L549.5,32.5" id="Line" stroke="#979797" stroke-linecap="square" fill="#3E3E3E"></path>
        <path id="Line-decoration-1" d="M549.5,32.5 L538.7,29.5 L538.7,35.5 L549.5,32.5 Z" stroke="#979797" stroke-linecap="square" fill="#3E3E3E"></path>
        <path d="M665.5,32.5 L704.5,32.5" id="Line" stroke="#979797" stroke-linecap="square" fill="#3E3E3E"></path>
        <path id="Line-decoration-1" d="M704.5,32.5 L693.7,29.5 L693.7,35.5 L704.5,32.5 Z" stroke="#979797" stroke-linecap="square" fill="#3E3E3E"></path>
        <path d="M773.5,32.5 L812.5,32.5" id="Line" stroke="#979797" stroke-linecap="square" fill="#3E3E3E"></path>
        <path id="Line-decoration-1" d="M812.5,32.5 L801.7,29.5 L801.7,35.5 L812.5,32.5 Z" stroke="#979797" stroke-linecap="square" fill="#3E3E3E"></path>
        <path d="M244.5,33.5 L284.5,33.5" id="Line" stroke="#979797" stroke-linecap="square" fill="#3E3E3E"></path>
        <path id="Line-decoration-1" d="M284.5,33.5 L273.7,30.5 L273.7,36.5 L284.5,33.5 Z" stroke="#979797" stroke-linecap="square" fill="#3E3E3E"></path>
        <ellipse id="Oval" stroke="#979797" fill-opacity="0.45" fill="#F5A623" cx="343.5" cy="34" rx="58.5" ry="31"></ellipse>
        <text id="List-String" font-family="Calibri" font-size="18" font-weight="normal" fill="#000000">
            <tspan x="307.864746" y="40">List String</tspan>
        </text>
        <g id="Group" transform="translate(813.000000, 1.000000)">
            <ellipse id="Oval" stroke="#979797" fill-opacity="0.45" fill="#F5A623" cx="58.5" cy="31" rx="58.5" ry="31"></ellipse>
            <text id="Compilation" font-family="Calibri" font-size="18" font-weight="normal" fill="#000000">
                <tspan x="16" y="37">Compilation</tspan>
            </text>
        </g>
    </g>
</svg>